<?xml version="1.0" encoding="UTF-8"?>
<!DOCTYPE svg PUBLIC "-//W3C//DTD SVG 1.1//EN" "http://www.w3.org/Graphics/SVG/1.1/DTD/svg11.dtd">
<svg xmlns="http://www.w3.org/2000/svg" version="1.1" width="640px" height="640px" style="shape-rendering:geometricPrecision; text-rendering:geometricPrecision; image-rendering:optimizeQuality; fill-rule:evenodd; clip-rule:evenodd" xmlns:xlink="http://www.w3.org/1999/xlink">
<g><path style="opacity:0.992" fill="#0dbd8b" d="M 259.5,-0.5 C 270.167,-0.5 280.833,-0.5 291.5,-0.5C 385.466,11.3839 454.633,59.0506 499,142.5C 517.575,180.71 525.909,221.043 524,263.5C 518.827,283.005 506.161,293.338 486,294.5C 466.272,293.438 453.606,283.438 448,264.5C 447.791,194.893 418.958,141.06 361.5,103C 329.017,84.4616 294.017,75.1283 256.5,75C 233.436,65.0354 225.269,47.8687 232,23.5C 237.66,11.3309 246.827,3.3309 259.5,-0.5 Z"/></g>
<g><path style="opacity:0.992" fill="#0dbc8b" d="M -0.5,379.5 C -0.5,368.833 -0.5,358.167 -0.5,347.5C 11.3839,253.534 59.0506,184.367 142.5,140C 180.709,121.425 221.042,113.092 263.5,115C 283.005,120.173 293.338,132.839 294.5,153C 293.438,172.728 283.438,185.394 264.5,191C 194.893,191.209 141.06,220.042 103,277.5C 84.4617,309.983 75.1284,344.983 75,382.5C 65.0354,405.564 47.8687,413.731 23.5,407C 11.3309,401.34 3.3309,392.173 -0.5,379.5 Z"/></g>
<g><path style="opacity:0.992" fill="#0dbc8b" d="M 639.5,259.5 C 639.5,270.167 639.5,280.833 639.5,291.5C 626.676,390.341 575.342,461.174 485.5,504C 450.358,519.079 413.691,525.746 375.5,524C 355.995,518.827 345.662,506.161 344.5,486C 345.562,466.272 355.562,453.606 374.5,448C 444.107,447.791 497.94,418.958 536,361.5C 554.538,329.02 563.871,294.02 564,256.5C 573.965,233.436 591.131,225.269 615.5,232C 627.669,237.66 635.669,246.827 639.5,259.5 Z"/></g>
<g><path style="opacity:0.992" fill="#0dbc8b" d="M 379.5,639.5 C 369.167,639.5 358.833,639.5 348.5,639.5C 254.114,627.921 184.614,580.255 140,496.5C 121.425,458.29 113.091,417.957 115,375.5C 120.173,355.995 132.839,345.662 153,344.5C 172.728,345.562 185.394,355.562 191,374.5C 191.209,444.107 220.042,497.94 277.5,536C 309.98,554.538 344.98,563.871 382.5,564C 405.564,573.965 413.731,591.131 407,615.5C 401.313,627.699 392.146,635.699 379.5,639.5 Z"/></g>
</svg>
