<svg viewBox="0 0 16 16" xmlns="http://www.w3.org/2000/svg" class="jqOzib" style="width: 16px; height: 16px;"><path fill="#fbbc04" d="M14.222 0H1.778C.8 0 0 .8 0 1.778v12.444C0 15.2.8 16 1.778 16h12.444C15.2 16 16 15.2 16 14.222V1.778C16 .8 15.2 0 14.222 0zM6.044 9.244v3.2h-1.6V3.556h3.823c1.36 0 1.91.266 2.489.79.577.525.8 1.218.8 2.08 0 .907-.232 1.6-.8 2.09-.57.488-1.156.728-2.49.728H6.045zm0-1.244V4.8H8.09c.587 0 1.04.222 1.333.533a1.5 1.5 0 0 1 .445 1.111c0 .49-.16.845-.445 1.112C9.138 7.83 8.8 8 8.196 8H6.044z"></path></svg>