<?xml version="1.0" encoding="UTF-8"?>
<!DOCTYPE svg PUBLIC "-//W3C//DTD SVG 1.1//EN" "http://www.w3.org/Graphics/SVG/1.1/DTD/svg11.dtd">
<svg xmlns="http://www.w3.org/2000/svg" version="1.1" width="377px" height="329px" style="shape-rendering:geometricPrecision; text-rendering:geometricPrecision; image-rendering:optimizeQuality; fill-rule:evenodd; clip-rule:evenodd" xmlns:xlink="http://www.w3.org/1999/xlink">
<g><path style="opacity:1" fill="#fdfdfd" d="M 251.5,110.5 C 250.833,110.5 250.167,110.5 249.5,110.5C 230.062,98.6076 210.395,86.941 190.5,75.5C 189.167,51.5 189.167,27.5 190.5,3.5C 210.267,15.2716 230.267,26.605 250.5,37.5C 271.454,26.3561 292.12,14.6895 312.5,2.5C 313.537,26.2397 313.704,49.9064 313,73.5C 292.487,85.9982 271.987,98.3315 251.5,110.5 Z"/></g>
<g><path style="opacity:1" fill="#fdfdfd" d="M 127.5,110.5 C 126.833,110.5 126.167,110.5 125.5,110.5C 105.62,98.0596 85.287,86.3929 64.5,75.5C 64.3334,51.1644 64.5,26.8311 65,2.5C 85.1309,14.8155 105.631,26.4821 126.5,37.5C 146.733,26.605 166.733,15.2716 186.5,3.5C 187.833,27.5 187.833,51.5 186.5,75.5C 166.605,86.941 146.938,98.6076 127.5,110.5 Z"/></g>
<g><path style="opacity:1" fill="#fefefe" d="M 125.5,110.5 C 125.667,134.502 125.5,158.502 125,182.5C 105.63,194.033 86.1295,205.366 66.5,216.5C 65.7025,216.957 65.3691,217.624 65.5,218.5C 65.1667,218.5 64.8333,218.5 64.5,218.5C 43.5633,206.026 22.5633,193.526 1.5,181C 2.79649,157.45 2.79649,134.117 1.5,111C 2.5,110.333 3.5,110.333 4.5,111C 24.3368,122.753 44.3368,134.253 64.5,145.5C 84.6977,133.569 105.031,121.902 125.5,110.5 Z"/></g>
<g><path style="opacity:1" fill="#fdfdfd" d="M 251.5,110.5 C 271.969,121.902 292.302,133.569 312.5,145.5C 332.663,134.253 352.663,122.753 372.5,111C 373.5,110.333 374.5,110.333 375.5,111C 374.951,133.726 374.951,157.059 375.5,181C 354.97,193.43 334.304,205.597 313.5,217.5C 312.833,217.5 312.167,217.5 311.5,217.5C 291.648,205.986 271.814,194.319 252,182.5C 251.5,158.502 251.333,134.502 251.5,110.5 Z"/></g>
<g><path style="opacity:1" fill="#fefefe" d="M 127.5,110.5 C 147.643,122.408 167.976,134.074 188.5,145.5C 209.024,134.074 229.357,122.408 249.5,110.5C 249.833,134.842 249.5,159.176 248.5,183.5C 228.733,195.272 208.733,206.605 188.5,217.5C 168.267,206.605 148.267,195.272 128.5,183.5C 127.5,159.176 127.167,134.842 127.5,110.5 Z"/></g>
<g><path style="opacity:1" fill="#a19fa0" d="M 311.5,218.5 C 311.5,218.167 311.5,217.833 311.5,217.5C 312.167,217.5 312.833,217.5 313.5,217.5C 313.737,218.791 313.404,219.791 312.5,220.5C 312.672,219.508 312.338,218.842 311.5,218.5 Z"/></g>
<g><path style="opacity:1" fill="#fefdfe" d="M 64.5,218.5 C 64.8333,218.5 65.1667,218.5 65.5,218.5C 85.9416,229.89 106.275,241.557 126.5,253.5C 146.5,241.833 166.5,230.167 186.5,218.5C 187.666,242.493 187.833,266.493 187,290.5C 166.752,302.04 146.585,313.707 126.5,325.5C 106.33,313.581 85.9964,301.914 65.5,290.5C 64.5003,266.509 64.1669,242.509 64.5,218.5 Z"/></g>
<g><path style="opacity:1" fill="#fefefe" d="M 311.5,218.5 C 312.338,218.842 312.672,219.508 312.5,220.5C 312.246,242.255 312.579,264.089 313.5,286C 312.91,287.509 312.244,289.009 311.5,290.5C 291.33,302.419 270.996,314.086 250.5,325.5C 230.415,313.707 210.248,302.04 190,290.5C 189.167,266.493 189.334,242.493 190.5,218.5C 210.5,230.167 230.5,241.833 250.5,253.5C 270.698,241.569 291.031,229.902 311.5,218.5 Z"/></g>
</svg>
