<?xml version="1.0" encoding="iso-8859-1"?>
<!-- Uploaded to: SVG Repo, www.svgrepo.com, Generator: SVG Repo Mixer Tools -->
<svg fill="#646464" height="800px" width="800px" version="1.1" id="Capa_1" xmlns="http://www.w3.org/2000/svg" xmlns:xlink="http://www.w3.org/1999/xlink" 
	 viewBox="0 0 488.914 488.914" xml:space="preserve">
<g>
	<path d="M474.234,163.3l-58.3-19.5v-123c0-11.4-9.4-20.8-20.8-20.8h-301.6c-11.4,0-20.8,9.4-20.8,20.8v122.1l-59.4,20.4
		c-5.9,0.9-16.9,10-11.4,27l88.4,213.3c-11,2.8-21.4,8.3-30.1,16.6l-34.3,33.3c-8.3,8.3-8.3,20.8,0,29.1c11.2,11.2,24.7,5.1,28.1,0
		l34.3-33.3c22.6-17.9,39.5,4.2,39.5,4.2c26,25,67.6,25,93.6,0c23.6-30.3,42.9-15.4,53.1-6.2c26,25,67.6,25,93.6,0
		c9.4-9.4,26-9.4,35.4,0l31.2,31.2c8.3,8.3,20.8,8.3,29.1,0c8.3-8.3,8.3-20.8,0-29.1l-31.2-31.2c-9.4-9-20.8-14.7-32.8-17.3
		l86.9-210.6C488.834,185.1,492.334,171,474.234,163.3z M114.334,40.5h260v89.3l-126.9-42.5c-4.2-1-9.4-1-13.5,0l-119.6,41.2V40.5z
		 M193.334,424.4c-9.4,9.4-26,9.4-35.4,0c0,0-9.3-10.8-21-15.9c-0.2-0.9-89.3-214-89.3-214l172.7-59.7v267.1
		C210.034,406,193.334,424.4,193.334,424.4z M351.634,408.6c-4.5,2.6-8.7,5.8-12.6,9.5c-9.4,9.4-26,9.4-35.4,0
		c0,0-17.1-20-41.6-23.1V135.2l177.9,59.3C439.934,194.5,351.834,407.6,351.634,408.6z"/>
</g>
</svg>